#!OML:ASF F:\VICON\USERDATA\INSTALL\rory3\rory3.ASF
:FULLY-SPECIFIED
:DEGREES
2934
root -2.08508 17.938 -1.7996 -183.869 219.878 -181.455
lowerback 5.65612 2.36342 -4.23099
upperback 2.30385 2.82326 -3.70626
thorax -0.810036 1.38187 -1.6234
lowerneck -9.66259 -3.21507 -8.14416
upperneck 15.786 -4.96151 10.6482
head 6.8581 -2.05622 4.36247
rclavicle -2.44505e-014 -1.59028e-015
rhumerus 343.802 35.7455 -449.225
rradius 72.6353
rwrist 37.9334
rhand -58.3695 -11.3446
rfingers 7.12502
rthumb -30.5983 -38.8218
lclavicle -2.44505e-014 -1.59028e-015
lhumerus -3.19229 -46.0179 93.6838
lradius 111.967
lwrist -34.9428
lhand -52.6551 60.2226
lfingers 7.12502
lthumb -25.1353 88.5879
rfemur -5.72342 16.1079 17.8512
rtibia 37.7303
rfoot -25.933 -10.638
rtoes -9.55689
lfemur -17.9007 -21.6357 -2.54677
ltibia 25.3701
lfoot -6.54288 -9.07763
ltoes -12.7163
2935
root -2.11655 17.9575 -1.87133 -183.559 219.497 -181.576
lowerback 5.45199 2.30209 -4.06864
upperback 2.48206 2.77687 -3.59218
thorax -0.51077 1.3556 -1.57921
lowerneck -10.1777 -3.27253 -8.20809
upperneck 15.8968 -4.96007 10.4229
head 6.98175 -2.05914 4.29608
rclavicle -3.77691e-014 -4.6118e-014
rhumerus 342.513 35.9272 -450.228
rradius 71.4392
rwrist 36.7624
rhand -57.2911 -7.57152
rfingers 7.12502
rthumb -29.5694 -35.2359
lclavicle -3.77691e-014 -4.6118e-014
lhumerus -3.07587 -45.4636 92.7343
lradius 111.943
lwrist -34.7926
lhand -52.6544 58.7163
lfingers 7.12502
lthumb -25.1346 87.0817
rfemur -6.08429 15.193 17.9152
rtibia 37.5822
rfoot -25.712 -10.0569
rtoes -9.71992
lfemur -17.9861 -22.17 -2.08478
ltibia 24.6445
lfoot -6.87143 -8.51289
ltoes -12.7881
2936
root -2.14662 17.9708 -1.94254 -183.246 219.01 -181.658
lowerback 5.35214 2.24138 -3.89254
upperback 2.56555 2.71881 -3.49372
thorax -0.365988 1.32634 -1.56569
lowerneck -10.5797 -3.36938 -8.31251
upperneck 15.9915 -5.01409 10.2152
head 7.08726 -2.09409 4.23732
rclavicle 1.58332e-013 1.11319e-014
rhumerus 341.078 35.8417 -451.239
rradius 70.3779
rwrist 35.8083
rhand -56.7162 -7.43814
rfingers 7.12502
rthumb -29.0205 -35.1984
lclavicle 1.58332e-013 1.11319e-014
lhumerus -3.20578 -45.0015 91.9633
lradius 111.826
lwrist -34.5253
lhand -52.8299 57.6876
lfingers 7.12502
lthumb -25.3028 86.0293
rfemur -6.39514 14.3419 17.9736
rtibia 37.3904
rfoot -25.5343 -9.59778
rtoes -9.19726
lfemur -18.1414 -22.5752 -1.65437
ltibia 23.9308
lfoot -7.07016 -7.99197
ltoes -12.4389
2937
root -2.18201 17.992 -2.01603 -183.314 218.8 -181.406
lowerback 5.45323 2.2928 -3.97662
upperback 2.61012 2.7781 -3.48289
thorax -0.380674 1.35482 -1.51459
lowerneck -10.6651 -3.41472 -8.44003
upperneck 15.9289 -5.00922 10.0482
head 7.0812 -2.10972 4.20209
rclavicle -8.00108e-014 3.33958e-014
rhumerus 339.583 35.6646 -452.279
rradius 69.499
rwrist 35.1232
rhand -57.0511 -10.7228
rfingers 7.12502
rthumb -29.3403 -38.4275
lclavicle -8.00108e-014 3.33958e-014
lhumerus -3.51614 -44.5212 91.2047
lradius 111.657
lwrist -34.0527
lhand -53.2992 56.3349
lfingers 7.12502
lthumb -25.7523 84.6122
rfemur -6.46511 13.8397 17.8288
rtibia 37.1803
rfoot -25.4745 -9.04358
rtoes -8.02395
lfemur -17.8985 -23.0299 -1.62438
ltibia 23.2258
lfoot -7.66838 -6.80443
ltoes -13.1509
2938
root -2.21848 18.0219 -2.08542 -183.489 218.688 -181.043
lowerback 5.54158 2.39783 -4.22052
upperback 2.67995 2.90217 -3.45217
thorax -0.371252 1.41336 -1.35722
lowerneck -10.7145 -3.43005 -8.56995
upperneck 15.7574 -4.96293 9.91736
head 7.03058 -2.10417 4.18227
rclavicle -3.81667e-014 4.77083e-014
rhumerus 338.241 35.4135 -453.074
rradius 68.8532
rwrist 34.5435
rhand -57.526 -10.9549
rfingers 7.12502
rthumb -29.7936 -38.5794
lclavicle -3.81667e-014 4.77083e-014
lhumerus -3.85293 -43.9341 90.515
lradius 111.442
lwrist -33.5236
lhand -54.3781 53.4687
lfingers 7.12502
lthumb -26.7852 81.5921
rfemur -6.48668 13.4577 17.6224
rtibia 36.9641
rfoot -25.379 -8.55954
rtoes -7.4786
lfemur -17.5209 -23.8438 -1.69777
ltibia 22.5451
lfoot -8.80107 -4.58041
ltoes -13.8817
2939
root -2.25369 18.0449 -2.15664 -183.541 218.493 -180.805
lowerback 5.62428 2.46831 -4.44926
upperback 2.74396 2.98197 -3.3732
thorax -0.36707 1.4499 -1.15613
lowerneck -10.9895 -3.45436 -8.56458
upperneck 15.7585 -4.92559 9.65136
head 7.06984 -2.09861 4.09422
rclavicle -1.88845e-015 1.43125e-014
rhumerus 336.981 35.1969 -453.736
rradius 68.4423
rwrist 33.9079
rhand -57.5046 -10.9634
rfingers 7.12502
rthumb -29.7732 -38.5915
lclavicle -1.88845e-015 1.43125e-014
lhumerus -4.18828 -43.2929 89.8016
lradius 111.155
lwrist -33.1988
lhand -54.7729 51.4524
lfingers 7.12502
lthumb -27.1629 79.5174
rfemur -6.5869 13.0602 17.5553
rtibia 36.7433
rfoot -25.1471 -8.35216
rtoes -7.43019
lfemur -17.1961 -24.0577 -1.71822
ltibia 21.898
lfoot -10.0718 -2.21573
ltoes -14.8037
2940
root -2.28777 18.0685 -2.23066 -183.6 218.271 -180.528
lowerback 5.72868 2.4772 -4.73885
upperback 2.73384 2.97242 -3.24367
thorax -0.456321 1.44332 -0.866867
lowerneck -11.2374 -3.44041 -8.69852
upperneck 15.9293 -4.81681 9.34683
head 7.15438 -2.07107 4.02666
rclavicle 7.35503e-015 -2.22639e-014
rhumerus 335.721 35.2176 -454.375
rradius 68.0308
rwrist 33.2428
rhand -57.0988 -11.0451
rfingers 7.12502
rthumb -29.3859 -38.7418
lclavicle 7.35503e-015 -2.22639e-014
lhumerus -4.70806 -42.9426 89.2021
lradius 110.73
lwrist -33.7582
lhand -54.163 60.3704
lfingers 7.12502
lthumb -26.5793 88.5253
rfemur -6.72129 12.7452 17.4844
rtibia 36.5199
rfoot -24.8962 -8.31199
rtoes -6.9703
lfemur -16.8921 -23.4578 -1.90221
ltibia 21.3445
lfoot -11.1819 0.14819
ltoes -16.4534
